<svg xmlns="http://www.w3.org/2000/svg">
<!-- Dustbin icon -->
<symbol xmlns="http://www.w3.org/2000/svg" viewBox="0 0 20 20" id="dustbin-logo" width="100%" height="100%"><path d="M12.156 14.787c0 .09.035.167.102.228.067.06.154.09.257.09h.36c.098 0 .182-.03.25-.086a.285.285 0 0 0 .11-.233v-5.29a.31.31 0 0 0-.11-.237.348.348 0 0 0-.25-.1h-.36a.348.348 0 0 0-.25.1.31.31 0 0 0-.11.237zm-1.62-5.29a.307.307 0 0 0-.103-.237.363.363 0 0 0-.253-.1h-.36a.324.324 0 0 0-.244.1.33.33 0 0 0-.096.237v5.29c0 .09.03.167.093.228.06.06.142.09.247.09h.36c.096 0 .18-.03.253-.086a.282.282 0 0 0 .104-.233zM8.673 4.964a91.81 91.81 0 0 1 2.676 0c0-.07.005-.135.02-.202a.533.533 0 0 0 0-.187v-.128a2.85 2.85 0 0 0-.683-.095 27.3 27.3 0 0 0-1.374 0 2.8 2.8 0 0 0-.675.095v.128c0 .057.002.122.01.19.006.07.015.136.027.2m-.828 4.532a.316.316 0 0 0-.106-.237.356.356 0 0 0-.253-.1h-.358c-.1 0-.18.033-.244.1a.323.323 0 0 0-.098.237v5.29a.3.3 0 0 0 .098.228.34.34 0 0 0 .244.09h.358c.098 0 .182-.03.253-.086a.29.29 0 0 0 .106-.233zm2.16-1.312c.792-.01 1.582-.03 2.373-.05a27.15 27.15 0 0 0 2.374-.173v7.212c0 .36-.135.674-.404.934a1.364 1.364 0 0 1-.985.392H6.64c-.387 0-.72-.128-1-.39a1.223 1.223 0 0 1-.416-.936V7.962c.753.094 1.502.153 2.243.182a61.66 61.66 0 0 0 2.244.04zM16 6.075v.595c-.227.115-.603.207-1.13.28a22.34 22.34 0 0 1-1.707.162c-.61.04-1.203.062-1.78.065-.575.006-1.034.01-1.378.01-.338 0-.797-.004-1.38-.01a29.745 29.745 0 0 1-1.79-.065 24.075 24.075 0 0 1-1.694-.158c-.52-.07-.894-.164-1.12-.284a2.14 2.14 0 0 1-.02-.3v-.606c0-.102.006-.207.02-.31.15-.078.37-.15.652-.203.28-.052.58-.097.9-.132.318-.034.633-.06.942-.077.312-.015.552-.03.723-.042-.05-.47-.014-.837.105-1.104.12-.262.302-.46.548-.588.244-.13.545-.214.905-.252.36-.036.76-.054 1.21-.054.338 0 .672.007 1.006.025.336.018.633.078.898.175.264.102.473.26.63.47.156.214.235.514.235.905v.207c0 .07-.008.142-.017.216.176.01.418.027.724.043.307.02.622.044.945.078.32.035.626.08.912.133.29.055.51.126.663.203z" fill="inherit"></path></symbol>

<!-- Upload icon (clean up below svg with http://petercollingridge.appspot.com/svg-optimiser)-->
<symbol version="1.1" id="upload-logo" xmlns="http://www.w3.org/2000/svg" xmlns:xlink="http://www.w3.org/1999/xlink" x="0px" y="0px"
   width="100%" height="100%" viewBox="0 0 512 512" enable-background="new 0 0 512 512" xml:space="preserve">
<g>
  <path d="M446.844,208.875C447.625,203.313,448,197.656,448,192c0-70.563-57.406-128-128-128
    c-40.938,0-78.531,19.344-102.344,51.063C209.25,113.031,200.688,112,192,112c-61.75,0-112,50.25-112,112
    c0,1.563,0.031,3.094,0.094,4.625C33.813,242.375,0,285.313,0,336c0,61.75,50.25,112,112,112h272c70.594,0,128-57.406,128-128
    C512,273.344,486.344,231.188,446.844,208.875z M384,416H112c-44.188,0-80-35.813-80-80s35.813-80,80-80
    c2.438,0,4.75,0.5,7.125,0.719c-4.5-10-7.125-21.031-7.125-32.719c0-44.188,35.813-80,80-80c14.438,0,27.813,4.125,39.5,10.813
    C246,120.25,280.156,96,320,96c53.031,0,96,42.969,96,96c0,12.625-2.594,24.625-7.031,35.688C449.813,238.75,480,275.688,480,320
    C480,373.031,437.031,416,384,416z" fill="white"></path>
  <polygon points="160,288 224,288 224,384 288,384 288,288 352,288 256,192" fill="white"/>
</g>
</symbol>

<!-- App logo -->
<symbol version="1.0" id="app-logo" xmlns="http://www.w3.org/2000/svg"
 width="100%" height="100%" viewBox="0 0 1280.000000 1168.000000"
 preserveAspectRatio="xMidYMid meet">
<g transform="translate(0.000000,1168.000000) scale(0.100000,-0.100000)"
fill="#000000" stroke="none">
<path d="M4005 11581 c-1161 -750 -1908 -1955 -2046 -3303 l-13 -127 -95 -68
c-587 -420 -1103 -1036 -1411 -1688 -265 -559 -413 -1158 -434 -1755 -4 -110
-3 -133 4 -95 63 322 107 492 174 678 272 749 764 1377 1421 1814 117 78 355
217 361 210 2 -2 13 -61 24 -131 41 -256 93 -467 180 -727 290 -864 828 -1606
1567 -2158 l142 -106 6 -55 c64 -603 194 -1064 445 -1575 292 -595 723 -1131
1222 -1520 42 -33 77 -62 77 -65 0 -3 -54 -37 -122 -77 -466 -273 -926 -426
-1487 -495 -162 -20 -632 -17 -805 5 -314 40 -700 137 -918 231 -22 10 -36 13
-33 8 11 -17 391 -200 541 -260 383 -153 777 -250 1207 -299 215 -24 705 -24
913 0 503 59 933 175 1373 370 l102 46 103 -46 c439 -195 869 -311 1372 -370
208 -24 698 -24 913 0 430 49 824 146 1207 299 150 60 530 243 541 260 3 5
-11 2 -33 -8 -218 -94 -604 -191 -918 -231 -173 -22 -643 -25 -805 -5 -561 69
-1021 222 -1487 495 -68 40 -122 74 -122 77 0 3 35 32 77 65 499 389 930 925
1222 1520 251 511 381 972 445 1575 l6 55 142 106 c942 704 1561 1726 1747
2885 11 70 22 129 24 131 6 7 244 -132 361 -210 657 -437 1149 -1065 1421
-1814 67 -186 111 -356 174 -678 14 -73 3 203 -16 383 -120 1171 -705 2251
-1623 3001 -59 47 -149 117 -202 154 l-95 68 -13 127 c-129 1255 -802 2416
-1831 3158 -114 82 -340 227 -345 222 -2 -2 28 -28 68 -58 108 -82 410 -388
525 -532 449 -563 721 -1229 792 -1937 15 -157 24 -408 16 -482 l-7 -66 -111
43 c-319 126 -702 223 -1063 268 -801 101 -1645 -25 -2382 -358 l-103 -46
-102 46 c-738 333 -1582 459 -2383 358 -361 -45 -744 -142 -1063 -268 l-111
-43 -7 66 c-8 74 1 325 16 482 71 708 344 1375 792 1937 117 146 395 429 513
521 96 76 91 71 79 71 -5 -1 -63 -36 -129 -79z m80 -3955 c277 -40 489 -88
713 -163 193 -64 183 -52 114 -132 -317 -367 -598 -859 -786 -1374 l-18 -47
-40 32 c-209 165 -470 444 -651 696 -156 217 -330 535 -424 777 -73 187 -71
171 -21 178 24 4 90 13 148 22 188 29 281 34 570 30 185 -3 324 -9 395 -19z
m5520 1 c268 -39 266 -39 259 -61 -51 -168 -230 -540 -353 -736 -214 -339
-507 -673 -779 -888 l-40 -32 -18 47 c-134 368 -326 745 -520 1025 -85 121
-198 271 -266 349 -51 60 -56 69 -41 78 10 5 81 30 158 56 235 78 522 141 750
164 61 6 126 13 145 15 83 9 610 -4 705 -17z m-3111 -1343 c255 -318 465 -695
601 -1075 l13 -36 -96 -16 c-159 -27 -248 -36 -434 -46 -256 -14 -530 2 -790
46 l-96 16 13 36 c104 292 274 622 449 873 84 119 234 308 246 308 5 0 47 -48
94 -106z m-854 -2869 c484 -85 997 -87 1494 -4 65 11 121 18 123 15 3 -2 -5
-55 -17 -118 -86 -453 -253 -878 -501 -1276 -60 -97 -240 -343 -309 -422 l-30
-35 -30 35 c-69 79 -249 325 -309 422 -247 396 -414 821 -500 1271 -23 121
-24 127 -13 127 4 0 45 -7 92 -15z"/>
</g>
</symbol>

</svg>