<svg version="1" xmlns="http://www.w3.org/2000/svg" width="2133.333" height="2133.333" viewBox="0 0 1600.000000 1600.000000"><path d="M507.9 77.8c-8.5 5.3-39.6 26.7-41.9 28.9-.8.8-5.1 4.1-9.4 7.4-4.4 3.3-9.6 7.4-11.6 9.2-2 1.8-6.2 5.4-9.5 8.2-14.2 12.1-36.2 33.6-50.1 49-55.9 61.8-97.5 136.1-121 216-6.6 22.5-15 61.5-16.9 78.5-.3 3-.8 6.6-1 8-.5 3-1.2 8.3-2 16.5-.8 6.7-1.5 11.9-1.8 12.1-16.7 11.4-41 30.5-57.7 45.4-20.3 18.1-50.2 50.4-67.9 73.5-1.7 2.2-4 5.1-5.1 6.5-1.1 1.4-6.9 9.5-12.9 18.1-31 44.6-53.4 89.9-70.7 142.9-5.6 17.2-5.8 17.8-9.7 32.5-3.7 13.7-7.7 31.2-9.2 41-.3 1.6-.7 4.1-1 5.5-.3 1.4-.7 4.1-1 6-.3 1.9-.7 4.6-1 6-.5 2.7-1.1 7.3-2 16-.4 3-.8 6.7-1.1 8.2-.5 3-1 10.9-1.9 26.3C.4 957.7.3 961 .9 961c.5 0 2.6-9.5 4.8-21 .2-1.4.9-4.3 1.4-6.5.5-2.2 1.6-6.8 2.4-10.3 15.4-68.9 54.1-141.9 105.4-199.1 9.1-10.1 26.7-27.4 38.1-37.3 15-13 43.7-34.8 45.9-34.8.5 0 1.4-.7 2.1-1.5.7-.9 4-3.2 7.4-5.1 3.4-1.9 9.7-5.7 14.1-8.5 9.9-6.2 23.5-13.2 23.5-12.1 0 .4 1.4 8.2 3 17.2 1.7 9.1 3.3 18.1 3.6 20 .9 5.5 4.3 20.1 7.7 33 5.3 19.6 17.9 57.3 23.2 69.5.7 1.6 3.9 8.8 7 16 21.4 49.2 55.5 102.2 92.4 143.5 7.5 8.4 32.1 33.3 41.6 42.1 9.2 8.4 29.9 25.3 44.5 36.3 8 6 14.8 11.2 15.2 11.5.4.3.9 2.8 1.2 5.6.9 7.4 1.6 13.6 2.1 17 .2 1.6.7 5.2 1 8 .3 2.7 1.1 7.7 1.7 11 .5 3.3 1.2 7.3 1.4 9 .2 1.6.6 4.1.9 5.5.3 1.4 1 5.2 1.6 8.5.6 3.3 2.2 10.9 3.6 17 1.3 6 2.6 11.7 2.8 12.6 3.2 14.8 15.4 51.7 23.5 71.3 16.5 40 32.9 70.7 56.1 105.3 8.5 12.7 28.3 39.1 33.1 44.3 1.3 1.4 5.6 6.3 9.5 11 7.2 8.7 31 33.1 41.8 43.1 3.3 3 12.8 11.1 21 18 18.2 15.1 18 14.8 16.9 15.8-.5.4-4.9 3.3-9.9 6.3-34.6 21.3-82 41.6-118.5 50.8-2.5.6-6.7 1.8-9.5 2.5-7.8 2.2-33.8 7.2-46.5 9l-14 2c-9.8 1.5-65.1 2.2-82 1.1-22-1.5-46-5.1-68-10.2-3.6-.9-7.2-1.7-8-1.9-13.1-2.9-40.6-11.1-52.9-15.9-5.2-2-9.6-3.4-9.8-3.2-.4.3 38.7 19.9 47.2 23.6 1.1.5 4.7 2.1 8 3.5 22.6 10.1 63.4 23.9 82.5 28 .8.2 6.2 1.5 12 2.8 17.6 4.2 43.1 8.7 63 11.2 2.2.3 10.6 1 26 2.1 7.2.5 68 .5 74-.1 3-.2 9.3-.7 14-1 4.7-.3 9.2-.7 10-.9.8-.3 4-.7 7-1.1 9.4-1 13.5-1.6 23.5-3.5 2.8-.5 6.6-1.1 8.5-1.4 7.1-1.1 27.9-5.8 42.8-9.6 13.8-3.7 45.7-13.7 50.7-16 1.1-.5 6.3-2.5 11.5-4.5 5.2-2.1 10.9-4.3 12.5-5.1 1.7-.7 7.6-3.3 13.3-5.8l10.2-4.4 13.3 5.7c7.2 3.2 17 7.3 21.7 9.1 4.7 1.8 9.9 3.8 11.5 4.5 15.6 6.7 64.1 20.5 84.4 24 1.9.3 3.7.8 4 1 .6.3 5.1 1.1 11.6 2 1.1.2 3.4.6 5 .9 5.5 1 16.5 2.6 20.9 3.2 2.4.2 5.3.6 6.4.9 1 .2 6.6.6 12.3 1 5.7.4 12 .9 13.9 1.1 4.9.5 67.4.5 74-.1 3-.2 8.9-.7 13-1 12.3-.9 25-2.6 44.5-5.9 10.1-1.8 22.1-4.2 32.5-6.7 6.9-1.7 13.4-3.3 14.5-3.5 1.1-.3 2.9-.7 4-.9 1.1-.3 9.2-2.7 18-5.5s16.7-5.2 17.5-5.4c4.3-1.2 27.1-10.1 38.4-15.1 16.1-6.9 55.9-26.5 55.3-27.1-.2-.3-3.8.8-7.8 2.4-10.9 4.3-17.9 6.6-33.4 11.1-13.6 3.8-46.9 11.6-53.6 12.5-1.9.2-7.4 1.1-12.4 2-4.9.8-12.8 1.8-17.5 2.2-4.7.3-10.1.8-12 1-5.4.6-65.7.5-73-.1-6.4-.6-25.7-3-31.5-4-28.5-5-42.3-8.2-65-15-12.7-3.9-25.2-8.2-27.7-9.5-1-.6-2.3-1-2.9-1-.5 0-3.6-1.2-6.7-2.6-3.1-1.4-7.8-3.4-10.3-4.4-6.4-2.6-32.7-15.7-42.9-21.4-15.8-9-23-13.8-22.2-15.1.4-.7 3.9-3.8 7.7-7 29.1-23.8 52.9-46.3 71-67.5 4.9-5.8 9.2-10.7 9.5-11 4.6-4.6 23.6-30.1 34.8-47 41.1-61.4 68.3-125 83.1-194.6 3.2-14.7 3.5-16.8 4.7-24.9.7-5 .9-6.7 1.8-11.5.3-1.4.8-4.8 1.1-7.5.3-2.8 1-8.4 1.5-12.5s1.2-9.8 1.6-12.5c.3-2.8.9-5.3 1.2-5.6.4-.3 6.3-4.8 13.2-10 6.9-5.1 12.7-9.6 13-9.9.3-.3 3.4-2.8 7-5.5s7-5.4 7.5-6c.6-.7 3.9-3.6 7.5-6.6 16.1-13.4 43.2-40.4 58.5-58.4 3.3-3.8 6.6-7.6 7.2-8.3.7-.7 3.4-4.1 6-7.5 2.6-3.4 5-6.4 5.4-6.7 2.8-2.1 40.9-58.4 40.9-60.5 0-.2 1.9-3.7 4.3-7.7 2.3-4 6.2-11.4 8.7-16.3 2.5-5 4.7-9.2 5-9.5 2.2-2 26-59.1 27.5-66 .2-.8 1.2-4 2.4-7 5.9-16.1 15.7-55.2 19.7-78.5.3-1.7 1.5-8 2.7-14.2l2.2-11.2 6 3c17.4 8.9 53.1 32.4 71.2 46.9 19.2 15.4 43.7 38.7 55.4 52.5 1.9 2.2 3.9 4.4 4.5 5 7.2 6.8 33.7 42.9 44.1 60 22.8 37.6 40.6 78.6 51.2 117.5 1.9 6.8 7.5 31.1 8.5 36.4 3.3 17.8 4.2 19.9 4 9.4-.2-7.5-1.2-25.7-1.9-31.8-.2-1.9-.6-6.4-.9-10-.4-3.6-.8-7.6-1.1-8.9-.2-1.3-.7-4.6-1-7.5-.4-2.8-.8-6.2-.9-7.6-.3-2.4-3-17.2-4.2-23.5-.3-1.7-.7-3.9-.9-5-1.1-5.8-1.9-9.5-5.5-23.6-2.2-8.5-4.2-16.3-4.5-17.5-.8-3.5-6.1-20.2-9.8-30.9-16.8-48.4-42.1-97.4-72-139.5-7-9.8-24.4-32.3-27.8-36-1.3-1.4-5.3-5.9-8.8-10-24.2-28.4-65.6-65.7-96.6-87.1-2.7-1.9-5.2-3.6-5.6-3.9-.9-.6-1.4-3.3-2.4-12.5-1-9.5-1.5-13.8-2-16.5-.2-1.4-.6-5-1-8-.7-6.2-2.4-16.3-5.5-32.5-3.7-19.6-13.2-53.2-21.3-76.1-35.9-100.2-99.2-187.8-183.6-253.8-10.8-8.4-48.6-34.3-56.2-38.4-2.1-1.2-2-1 .6 1.5 1.7 1.5 5.7 5 9 7.8 8.8 7.3 27.3 25.3 44 42.9 30.8 32.4 62.7 81.9 81.8 127.1 12.5 29.5 24 66.4 28.3 91 .3 1.6.9 4.8 1.4 7 .5 2.2 1.2 6.5 1.5 9.5.4 3 .8 5.7 1 6 .1.3.6 3.2.9 6.5.4 3.3.9 7.8 1.2 10 1.1 9 1.3 11.9 2 24.2 1 17.1.9 45.6-.2 47.5-.8 1.3-2.6.9-12.4-2.8-18.6-7.1-30.6-11.2-45.5-15.4-7.7-2.2-15.6-4.5-17.5-5-3.9-1.1-23.6-5.7-27.7-6.5-1.5-.2-4.9-.9-7.7-1.4-2.8-.6-6.2-1.2-7.6-1.5-1.4-.2-4.1-.7-6-1-6.8-1.2-9.5-1.6-14-2.2-2.5-.3-5.6-.7-7-1-1.4-.2-5.6-.6-9.5-1-3.8-.3-7.7-.8-8.6-.9-13.7-2.6-85.1-2.6-104.8 0-1.9.3-5.7.7-8.5 1-2.8.3-6.6.7-8.4.9-1.8.3-6.8 1-11.3 1.6-11.5 1.6-42.9 7.7-46.4 9-1.7.6-3.1 1.1-3.3 1-1.3-.7-29.7 7.3-47.9 13.4-17.8 6-33 11.9-51.2 20l-12.5 5.5-3.9-2.1c-14.5-7.3-50.4-21.1-72.7-27.8-7.4-2.2-14.9-4.5-16.7-5.1-1.8-.5-4-1.2-5-1.4-1-.2-7.9-1.8-15.3-3.5-7.4-1.8-14.6-3.4-16-3.6-1.4-.2-3.6-.7-5-1-1.4-.3-3.6-.8-5-1-1.4-.2-4.1-.7-6-1-1.9-.3-4.6-.8-6-1-1.4-.2-3.8-.6-5.5-.9-1.6-.2-4.8-.7-7-1-2.2-.3-5.3-.7-7-1-1.6-.2-5.7-.7-9-1-3.3-.4-7.6-.9-9.5-1.1-20.7-2.5-85-2.5-104.5.1-1.6.2-5.9.7-9.5 1-3.6.3-7.2.7-8 1-.8.2-4.2.6-7.5 1-14.7 1.6-50.2 9-73.5 15.5-13.2 3.6-38.9 12.2-53.5 17.9-8.4 3.3-10.1 3.7-10.8 2.4-1.6-2.6-1-49.6.7-63.3.2-1.4.7-5.5 1-9.2.4-3.7.9-7.7 1.1-9 .2-1.3.9-5.7 1.5-9.8 2-13.6 5.2-29 9.5-46 9.7-38 31.6-90.3 50-119 1.2-1.9 4.4-7 7.1-11.3 6.9-11.1 7.2-11.6 13.8-20.9 4.9-6.9 10.1-13.7 15.5-20.4 1.8-2.2 14.7-17 16.6-19 19.4-20.5 39.8-40 51-48.8 6.8-5.3 7.1-5.6 6-5.5-.6 0-4.4 2.2-8.6 4.7zM495 575.5c4.1.3 9.5.8 12 1 4 .3 11.3 1.4 20 2.9 1.4.3 4.1.7 6 1 14.9 2.3 41.8 8.9 64 15.9 18.5 5.8 22 7.3 22 9.4 0 1.5-3 6-6.2 9.5-6 6.4-23.8 29.9-33.4 44.3-17.3 25.7-36.8 61.6-49.1 90-1.9 4.4-4.1 9.3-4.8 11-.7 1.6-3.7 9.1-6.5 16.5-2.9 7.4-5.3 13.6-5.5 13.8-.6.7-20.4-16.5-31.3-27.2-6.2-6.1-15.9-16.3-21.5-22.6-5.6-6.3-11.2-12.6-12.5-14-7.1-7.6-37.2-49.2-37.2-51.3 0-.3-3.1-5.6-6.8-11.8-8.9-14.9-18.6-34.2-25.7-50.9-3.1-7.4-6.3-14.9-7-16.5-2.4-5.8-4.6-13.5-4.1-14.3.3-.5 3.2-1.3 6.3-1.7 3.2-.4 6.7-.8 7.8-1.1 1.1-.2 5.6-.8 10-1.4 4.4-.6 9.1-1.3 10.5-1.6 1.4-.2 5.8-.7 9.9-.9 4.1-.3 7.6-.7 7.8-.9.6-.6 67.4.2 75.3.9zm689.3 0c3.7.3 9.5.7 13 1 3.4.2 7.1.6 8.2.8 1.9.4 7.7 1.4 14 2.3 8.8 1.3 13.5 2.6 13.5 3.9 0 3.9-14.7 37.8-26.1 60-13 25.4-24.6 43.9-41.6 66.3-14.8 19.5-22.9 28.9-40.5 46.8-14 14.3-15.5 15.7-28.2 26.4-8.8 7.3-10.1 8.1-10.8 6.4-.4-1-2.4-6.2-4.4-11.4-7.4-19.3-17-41-26.5-59.8-5.3-10.6-10.1-19.8-10.7-20.5-.5-.6-2.3-3.7-3.9-6.7-10.2-18.7-29.8-47.1-49-70.8-9.6-11.8-11.8-15-11-15.8.3-.3 7.4-2.9 15.9-5.8 25.2-8.7 63.2-17.7 86.3-20.6 5-.6 10.1-1.3 11.5-1.6 1.4-.2 5.9-.7 10-1 4.1-.4 7.7-.8 7.9-1 .5-.5 64.2.5 72.4 1.1zM806.7 738.7c14.2 16.2 32.4 42.6 47.4 68.8 9.2 16 21.7 42.6 29 61.7 5.3 13.9 5.5 14.4 3.7 14.5-.7 0-4.2.6-7.8 1.2-3.6.6-8.3 1.3-10.5 1.6-2.2.4-4.9.8-6.1 1-1.1.2-5.2.6-9 1s-7.9.8-9.2 1c-14.8 2.3-71.4 2.3-88.7 0-1.6-.2-5.5-.6-8.5-.9-3-.4-6.8-.8-8.5-1.1-13.4-2.1-24.2-3.7-25.2-3.8-.7 0-1.3-.5-1.3-1.1 0-3.9 21.2-52 28.4-64.6 1.4-2.5 2.9-5.2 3.3-6 2.1-4.4 15.7-27.6 20.3-34.5 7.8-11.7 30.7-41.6 34-44.2.8-.7 1.8-1.3 2.1-1.3.4 0 3.4 3 6.6 6.7zM704 1103c10.6 1.6 11.9 1.8 17.5 2.6 2.8.3 5.2.7 5.5.9.3.2 4.3.6 9 1s8.7.8 9 1c4.2 2.5 104.6 2.6 109 0 .3-.1 4.1-.6 8.5-1s8.7-.8 9.5-.9c.8-.2 4-.6 7-1.1 3-.4 6.2-.9 7.1-1 .9-.2 4-.6 7-1s7.4-1 9.8-1.5l4.3-.8-.7 5.2c-.5 4.1-3.2 18.6-5 26.6-1.8 8.3-8.4 31.8-11.9 42.3-12.4 37.2-32.2 78.1-52.9 109.2-9.4 14-34.9 47.7-36.6 48.2-.9.3-19.9-24-31.8-40.9-32.6-46.1-58.6-106.4-70.9-164.3-3.3-15.4-3.1-14.1-3.9-20.9-.7-5.4-.6-5.8 1.1-5.3 1.1.3 5.3 1.1 9.4 1.7z"/></svg>